<?xml version="1.0" standalone="no"?>
<!DOCTYPE svg PUBLIC "-//W3C//DTD SVG 20010904//EN"
 "http://www.w3.org/TR/2001/REC-SVG-20010904/DTD/svg10.dtd">
<svg version="1.0" xmlns="http://www.w3.org/2000/svg"
 width="401.000000pt" height="379.000000pt" viewBox="0 0 401.000000 379.000000"
 preserveAspectRatio="xMidYMid meet">
<metadata>
Created by potrace 1.16, written by Peter Selinger 2001-2019
</metadata>
<g transform="translate(0.000000,379.000000) scale(0.100000,-0.100000)"
fill="#000000" stroke="none">
<path d="M855 3700 l-650 -5 -37 -23 c-47 -30 -53 -54 -53 -239 0 -142 0 -142
29 -171 15 -17 41 -32 57 -36 16 -3 230 -6 474 -6 624 -1 913 -9 931 -27 40
-40 16 -58 -371 -287 -104 -62 -266 -157 -360 -213 -93 -55 -201 -118 -240
-141 -103 -59 -140 -105 -123 -152 18 -53 27 -54 494 -58 l432 -3 28 -30 29
-30 5 -1024 5 -1024 30 -32 c45 -47 82 -59 187 -59 117 0 155 11 198 55 l35
36 3 907 c2 499 -1 963 -5 1032 l-8 125 -85 0 -85 0 -3 34 c-3 30 4 40 71 105
l74 71 8 99 c5 66 3 102 -4 109 -10 10 -213 -57 -376 -125 -128 -54 -214 -79
-235 -68 -48 26 -36 95 27 150 43 38 88 67 280 181 87 52 94 62 108 157 12 76
59 93 128 46 58 -39 63 -28 69 139 5 152 13 181 63 227 49 46 130 24 167 -44
6 -10 13 -90 17 -177 5 -134 9 -162 24 -176 18 -17 20 -16 49 20 30 37 61 47
103 31 24 -10 45 -58 45 -105 0 -37 6 -48 44 -85 24 -23 99 -73 166 -110 140
-79 196 -127 205 -177 16 -83 -31 -96 -160 -46 -44 17 -141 53 -215 80 -74 28
-159 59 -188 70 -29 11 -57 17 -63 14 -5 -4 -9 -50 -9 -103 l0 -98 66 -63 c81
-79 98 -104 90 -135 -8 -34 -31 -39 -104 -25 -54 11 -65 11 -73 -2 -10 -16
-11 -1710 -1 -1926 7 -139 8 -143 36 -172 39 -41 86 -55 181 -55 150 0 217 39
228 136 4 29 7 489 7 1022 l0 968 39 39 39 39 333 1 c184 1 381 4 437 8 93 5
106 8 123 30 10 13 19 33 19 44 0 29 -83 106 -157 145 -34 18 -84 47 -111 65
-27 17 -81 49 -118 70 -91 50 -173 99 -319 187 -66 40 -156 92 -200 116 -115
63 -187 115 -205 146 -13 25 -13 29 3 45 17 17 65 18 723 23 l706 5 28 32 c36
40 43 83 38 246 l-3 127 -33 32 c-31 31 -37 33 -130 39 -109 8 -1968 7 -2957
-1z"/>
</g>
</svg>
